# xmcd CD database file
#
# Track frame offsets:
#	150
#	17982
#	37780
#	60105
#	77885
#
# Disc length: 1301 seconds
#
# Revision: 5
# Processed by: cddbd v1.5.1PL0 Copyright (c) Steve Scherf et al.
# Submitted via: CDex 1.51
#
DISCID=2d051305
DTITLE=苺ましまろ - いちごコンプリート
DYEAR=2005
DGENRE=Anime
TTITLE0=千佳＠千葉紗子、美羽＠折笠富美子、茉莉＠川澄綾子、アナ＠能登麻美子/いちごコンプリート
TTITLE1=伸恵＠生天目仁美/ゆらゆらDays
TTITLE2=千佳＠千葉紗子、美羽＠折笠富美子、茉莉＠川澄綾子、アナ＠能登麻美子/いちごコンプリート(jelly mix)
TTITLE3=karaoke/いちごコンプリート(オリジナルカラオケ)
TTITLE4=karaoke/ゆらゆらDays(オリジナルカラオケ)
EXTD=
EXTT0=
EXTT1=
EXTT2=
EXTT3=
EXTT4=
PLAYORDER=
